<svg width="165" height="21" viewBox="0 0 165 21" fill="none" xmlns="http://www.w3.org/2000/svg">
<path d="M3.52044 19.5196C1.50712 20.6825 0.0608368 19.7134 0.0608368 17.9896C0.0608368 16.1546 0.0608368 10.6486 0.0608368 10.6486C0.0608368 10.6486 0.0608368 5.14254 0.0608368 3.3075C0.0608368 1.58373 1.50623 0.614614 3.52044 1.77755C6.65615 3.58837 16.0624 9.0226 16.0624 9.0226C17.3131 9.74495 17.3131 11.5513 16.0624 12.2736C16.0624 12.2745 6.65615 17.7088 3.52044 19.5196Z" fill="#00C1FF"/>
<path d="M13.8752 19.5189C11.8619 20.6818 10.4156 19.7127 10.4156 17.9889C10.4156 16.1539 10.4156 10.6479 10.4156 10.6479C10.4156 10.6479 10.4156 5.14187 10.4156 3.30683C10.4156 1.58306 11.861 0.613943 13.8752 1.77688C16.9418 3.54821 26.1417 8.8631 26.1417 8.8631C27.5153 9.65634 27.5153 11.6394 26.1417 12.4327C26.1408 12.4327 16.9418 17.7476 13.8752 19.5189Z" fill="#FCDE00"/>
<mask id="mask0" style="mask-type:alpha" maskUnits="userSpaceOnUse" x="10" y="1" width="18" height="20">
<path d="M13.8752 19.5189C11.8619 20.6818 10.4156 19.7127 10.4156 17.9889C10.4156 16.1539 10.4156 10.6479 10.4156 10.6479C10.4156 10.6479 10.4156 5.14187 10.4156 3.30683C10.4156 1.58306 11.861 0.613943 13.8752 1.77688C16.9418 3.54821 26.1417 8.8631 26.1417 8.8631C27.5153 9.65634 27.5153 11.6394 26.1417 12.4327C26.1408 12.4327 16.9418 17.7476 13.8752 19.5189Z" fill="#FCDE00"/>
</mask>
<g mask="url(#mask0)">
<g filter="url(#filter0_f)">
<path d="M3.52044 19.5196C1.50712 20.6825 0.0608368 19.7134 0.0608368 17.9896C0.0608368 16.1546 0.0608368 10.6486 0.0608368 10.6486C0.0608368 10.6486 0.0608368 5.14254 0.0608368 3.3075C0.0608368 1.58373 1.50623 0.614614 3.52044 1.77755C6.65615 3.58837 16.0624 9.0226 16.0624 9.0226C17.3131 9.74495 17.3131 11.5513 16.0624 12.2736C16.0624 12.2745 6.65615 17.7088 3.52044 19.5196Z" fill="#FF8A00"/>
</g>
</g>
<path d="M33.8529 13.9214L34.2099 13.1131C34.4477 12.5658 34.8756 12.4231 35.4229 12.8278C36.469 13.5886 38.1808 14.1592 40.4641 14.1592C42.4136 14.1592 43.2462 13.6594 43.2462 13.0655C43.2462 12.3998 42.5562 12.2096 41.415 12.067L38.8231 11.7341C35.7082 11.3295 34.1382 10.2125 34.1382 8.2621C34.1382 6.16992 35.8499 4.50479 39.8217 4.50479C42.0332 4.50479 43.4597 4.83763 44.3873 5.1947C45.4092 5.59932 45.5528 5.93217 45.5528 6.76384V7.83416C45.5528 8.49985 45.315 8.7376 44.6493 8.7376H43.9119C43.2462 8.7376 43.0084 8.49985 43.0084 7.83416V7.47709C42.5805 7.33444 41.5101 7.12001 40.2505 7.12001C38.0624 7.12001 36.9929 7.52463 36.9929 8.19033C36.9929 8.68915 37.6353 8.97535 38.7998 9.14132L41.3442 9.47417C44.4591 9.87879 46.1 10.8056 46.1 13.0413C46.1 15.3237 43.9361 16.7744 40.0837 16.7744C37.254 16.7744 34.9707 15.8709 34.0673 15.0384C33.7344 14.7297 33.6869 14.326 33.8529 13.9214Z" fill="black"/>
<path d="M61.9125 16.5851H60.6045C59.9621 16.5851 59.7486 16.49 59.4391 16.0145L56.9656 12.3765C56.6085 11.8768 56.3474 11.7583 55.6109 11.7583H53.1374V15.6816C53.1374 16.3473 52.8996 16.5851 52.2339 16.5851H51.2829C50.6172 16.5851 50.3795 16.3473 50.3795 15.6816V3.86331H49.4994C48.8337 3.86331 48.5959 3.62557 48.5959 2.95987V2.17485C48.5959 1.50916 48.8337 1.27141 49.4994 1.27141H52.2339C52.8996 1.27141 53.1374 1.50916 53.1374 2.17485V9.09467H55.3489C56.0855 9.09467 56.3474 8.97624 56.7036 8.47652L58.7725 5.2898C59.1053 4.79098 59.3197 4.69588 59.9612 4.69588H61.2693C61.9825 4.69588 62.1252 5.26648 61.7214 5.8613L59.4148 9.35664C59.1771 9.68949 58.8918 10.0466 58.6065 10.3319C58.8918 10.5696 59.2964 10.9742 59.4624 11.212L62.3629 15.4448C62.7684 16.0145 62.6258 16.5851 61.9125 16.5851Z" fill="black"/>
<path d="M66.4064 18.7724V17.9873C66.4064 17.3217 66.6442 17.0839 67.3099 17.0839H68.451C69.141 17.0839 69.4738 16.9413 69.7349 16.394L69.8775 16.0845L64.4318 5.78773C64.0989 5.16958 64.3609 4.69409 65.0741 4.69409H66.3104C66.9528 4.69409 67.2381 4.81251 67.4758 5.26468L69.7582 9.94877C70.2813 11.0191 70.8761 12.2554 71.3516 13.3257C71.8271 12.2796 72.3734 11.0909 72.8974 10.0439L75.2282 5.26648C75.4426 4.81431 75.7513 4.69588 76.3936 4.69588H77.6299C78.3432 4.69588 78.6051 5.17138 78.2723 5.78952L72.0666 17.5603C71.3534 18.9159 70.5208 19.6767 68.6664 19.6767H67.3099C66.6442 19.6758 66.4064 19.4381 66.4064 18.7724Z" fill="black"/>
<path d="M80.3286 13.9214L80.6857 13.1131C80.9234 12.5658 81.3514 12.4231 81.8986 12.8278C82.9447 13.5886 84.6565 14.1592 86.9398 14.1592C88.8893 14.1592 89.7219 13.6594 89.7219 13.0655C89.7219 12.3998 89.032 12.2096 87.8908 12.067L85.2989 11.7341C82.1839 11.3295 80.6139 10.2125 80.6139 8.2621C80.6139 6.16992 82.3257 4.50479 86.2974 4.50479C88.5089 4.50479 89.9354 4.83763 90.8631 5.1947C91.8849 5.59932 92.0285 5.93217 92.0285 6.76384V7.83416C92.0285 8.49985 91.7907 8.7376 91.125 8.7376H90.3876C89.7219 8.7376 89.4841 8.49985 89.4841 7.83416V7.47709C89.0562 7.33444 87.9859 7.12001 86.7263 7.12001C84.5381 7.12001 83.4687 7.52463 83.4687 8.19033C83.4687 8.68915 84.111 8.97535 85.2755 9.14132L87.8199 9.47417C90.9348 9.87879 92.5758 10.8056 92.5758 13.0413C92.5758 15.3237 90.4118 16.7744 86.5594 16.7744C83.7297 16.7744 81.4465 15.8709 80.543 15.0384C80.2102 14.7297 80.1626 14.326 80.3286 13.9214Z" fill="black"/>
<path d="M118.249 9.97479V15.6816C118.249 16.3473 118.011 16.5851 117.346 16.5851H116.395C115.729 16.5851 115.491 16.3473 115.491 15.6816V10.2125C115.491 8.3581 114.588 7.24023 112.732 7.24023C111.234 7.24023 110.045 8.1679 109.165 9.14222V15.6816C109.165 16.3473 108.927 16.5851 108.262 16.5851H107.311C106.645 16.5851 106.407 16.3473 106.407 15.6816V10.2125C106.407 8.3581 105.527 7.24023 103.673 7.24023C102.222 7.21601 100.962 8.09613 100.082 9.04712V15.6816C100.082 16.3473 99.8446 16.5851 99.1789 16.5851H98.2279C97.5622 16.5851 97.3244 16.3473 97.3244 15.6816V7.28778H96.4443C95.7786 7.28778 95.5409 7.05004 95.5409 6.38434V5.59932C95.5409 4.93363 95.7786 4.69588 96.4443 4.69588H98.7509C99.4166 4.69588 99.6544 4.93363 99.6544 5.59932V6.24169C100.463 5.40913 101.771 4.50568 103.745 4.50568C105.932 4.50568 107.358 5.21893 108.215 6.55032C109.261 5.48 110.688 4.50568 112.781 4.50568C116.156 4.50479 118.249 6.36012 118.249 9.97479Z" fill="black"/>
<path d="M128.474 9.14222H131.28V8.7376C131.28 7.69151 130.02 7.07336 128.023 7.07336C126.216 7.07336 124.765 7.73906 123.909 8.38143C123.362 8.78605 122.934 8.66672 122.696 8.09613L122.339 7.28778C122.173 6.88316 122.22 6.47944 122.554 6.16992C123.243 5.52755 125.264 4.50568 128.165 4.50568C131.447 4.50568 133.943 5.88462 133.943 8.3581V15.6816C133.943 16.3473 133.705 16.5851 133.04 16.5851H132.279C131.613 16.5851 131.375 16.3473 131.375 15.6816V15.0159C130.59 15.9436 128.974 16.7753 126.715 16.7753C124.075 16.7753 121.793 15.539 121.793 13.1131C121.792 10.4978 124.194 9.14222 128.474 9.14222ZM127 14.2785C128.498 14.2785 131.375 13.4701 131.375 11.3295H128.783C125.834 11.3295 124.622 11.9476 124.622 12.9704C124.622 13.803 125.407 14.2785 127 14.2785Z" fill="black"/>
<path d="M150.397 9.71281C150.397 10.3785 150.159 10.6163 149.494 10.6163H148.543C147.877 10.6163 147.639 10.4261 147.639 9.71281C147.639 7.95348 146.973 7.16846 145.357 7.16846C143.835 7.16846 142.575 8.11945 141.861 9.26154V15.6816C141.861 16.3473 141.624 16.5851 140.958 16.5851H140.007C139.341 16.5851 139.104 16.3473 139.104 15.6816V7.28778H138.223C137.558 7.28778 137.32 7.05004 137.32 6.38434V5.59932C137.32 4.93363 137.558 4.69588 138.223 4.69588H140.53C141.196 4.69588 141.433 4.93363 141.433 5.59932V6.36012C142.289 5.40913 143.574 4.50568 145.786 4.50568C149.065 4.50479 150.397 6.43099 150.397 9.71281Z" fill="black"/>
<path d="M153.104 4.69588H154.697V1.58093C154.697 0.915238 154.935 0.67749 155.601 0.67749H156.552C157.217 0.67749 157.455 0.915238 157.455 1.58093V4.69588H163.376C164.042 4.69588 164.28 4.93363 164.28 5.59932V6.38434C164.28 7.05004 164.042 7.28778 163.376 7.28778H157.455V12.5191C157.455 13.5419 158.145 14.0883 159.785 14.0883C161.117 14.0883 161.926 13.6361 162.401 13.2799C162.948 12.8753 163.329 13.018 163.614 13.5652L164.066 14.4687C164.256 14.8733 164.161 15.1819 163.804 15.4914C163.376 15.8718 161.997 16.7753 159.476 16.7753C156.742 16.7753 154.696 15.6099 154.696 12.8753V7.28689H153.103C152.437 7.28689 152.199 7.04914 152.199 6.38344V5.59843C152.2 4.93273 152.438 4.69588 153.104 4.69588Z" fill="black"/>
<defs>
<filter id="filter0_f" x="-1.37484" y="-0.166328" width="19.8109" height="21.6298" filterUnits="userSpaceOnUse" color-interpolation-filters="sRGB">
<feFlood flood-opacity="0" result="BackgroundImageFix"/>
<feBlend mode="normal" in="SourceGraphic" in2="BackgroundImageFix" result="shape"/>
<feGaussianBlur stdDeviation="0.717838" result="effect1_foregroundBlur"/>
</filter>
</defs>
</svg>
