<svg width="28" height="26" viewBox="0 0 28 26" fill="none" xmlns="http://www.w3.org/2000/svg">
<path d="M0 13C0 12.2307 0 11.846 0.0428394 11.5101C0.3093 9.42044 1.78076 7.68344 3.79814 7.07707C4.12247 6.97959 4.50191 6.91635 5.26077 6.78987L6.60582 6.5657C7.05378 6.49104 7.27775 6.45371 7.48709 6.38183C7.78682 6.2789 8.0658 6.12338 8.31095 5.92255C8.48216 5.78229 8.63169 5.6114 8.93074 5.26963L9.85567 4.21256C12.1703 1.56727 13.3276 0.244627 14.3338 0.11805C15.2057 0.00837969 16.0755 0.335226 16.6594 0.991856C17.3333 1.74971 17.3333 3.5072 17.3333 7.02218V18.9778C17.3333 22.4928 17.3333 24.2503 16.6594 25.0081C16.0755 25.6648 15.2057 25.9916 14.3338 25.8819C13.3276 25.7554 12.1703 24.4327 9.85567 21.7874L8.93073 20.7304C8.63169 20.3886 8.48216 20.2177 8.31095 20.0774C8.0658 19.8766 7.78682 19.7211 7.48709 19.6182C7.27775 19.5463 7.05378 19.509 6.60582 19.4343L5.26077 19.2101C4.50191 19.0836 4.12247 19.0204 3.79814 18.9229C1.78076 18.3166 0.3093 16.5796 0.0428394 14.4899C0 14.154 0 13.7693 0 13Z" fill="black"/>
<path d="M20 4.99999H22.6667V21H20V4.99999Z" fill="black"/>
<path d="M25.3333 7.66666H28V18.3333H25.3333V7.66666Z" fill="black"/>
</svg>
